<svg fill="none" xmlns="http://www.w3.org/2000/svg" viewBox="0 0 90.38 40.33"> <path d="M16.0399 11.68C16.0399 13.12 15.2666 14.32 13.7199 15.28C12.1733 16.2133 10.2133 16.68 7.83994 16.68C6.98661 16.68 6.03994 16.6133 4.99994 16.48C4.01328 18.5333 3.51994 20.44 3.51994 22.2C3.51994 24.5733 4.57328 25.76 6.67994 25.76C8.30661 25.76 9.89328 24.9067 11.4399 23.2C11.7866 22.8267 12.0133 22.64 12.1199 22.64C12.2533 22.64 12.3199 22.7067 12.3199 22.84C12.3199 23.4533 11.6933 24.2133 10.4399 25.12C8.99994 26.16 7.50661 26.68 5.95994 26.68C4.22661 26.68 2.79994 26.1733 1.67994 25.16C0.559941 24.1467 -5.85765e-05 22.8667 -5.85765e-05 21.32C-5.85765e-05 18.3333 1.62661 15.44 4.87994 12.64C7.73328 10.1867 10.2799 8.96 12.5199 8.96C14.8666 8.96 16.0399 9.86667 16.0399 11.68ZM13.1999 11C13.1999 10.1733 12.7866 9.76 11.9599 9.76C11.1066 9.76 10.2666 10.08 9.43994 10.72C7.94661 11.8933 6.57327 13.64 5.31994 15.96C5.63994 15.9867 5.99994 16 6.39994 16C7.89327 16 9.34661 15.5467 10.7599 14.64C12.3866 13.6267 13.1999 12.4133 13.1999 11ZM27.6353 1.72C27.6353 2.84 27.1153 3.4 26.0753 3.4C25.5419 3.4 25.1019 3.24 24.7553 2.92C24.4086 2.57334 24.2353 2.14667 24.2353 1.64C24.2353 0.546669 24.8486 1.90735e-06 26.0753 1.90735e-06C27.1153 1.90735e-06 27.6353 0.573336 27.6353 1.72ZM24.8753 9.2C24.8753 9.28 24.8086 9.44 24.6753 9.68C24.4886 10 24.1819 10.6533 23.7553 11.64L19.1553 22.16C18.5419 23.5733 18.2353 24.4533 18.2353 24.8C18.2353 25.52 18.6086 25.88 19.3553 25.88C19.8619 25.88 20.4353 25.7067 21.0753 25.36C21.7419 24.9867 22.2486 24.5467 22.5953 24.04C22.8353 23.72 23.0219 23.56 23.1553 23.56C23.3153 23.56 23.3953 23.64 23.3953 23.8C23.3953 24.12 23.0219 24.6 22.2753 25.24C21.1553 26.2 19.8886 26.68 18.4753 26.68C17.5419 26.68 16.7686 26.44 16.1553 25.96C15.5686 25.48 15.2753 24.8667 15.2753 24.12C15.2753 23.4533 15.6086 22.3733 16.2753 20.88L20.4353 11.6C20.5686 11.1467 20.7286 10.8 20.9153 10.56C20.9953 10.4533 21.0353 10.36 21.0353 10.28C21.0353 10.04 20.4486 9.88 19.2753 9.8C19.0619 9.74667 18.9553 9.65334 18.9553 9.52C18.9553 9.28 19.0619 9.16 19.2753 9.16C19.3019 9.16 19.5019 9.18667 19.8753 9.24C20.2486 9.29334 20.8486 9.32 21.6753 9.32C22.7953 9.32 23.5819 9.22667 24.0353 9.04C24.3019 8.93334 24.4886 8.88 24.5953 8.88C24.7819 8.88 24.8753 8.98667 24.8753 9.2ZM43.5646 10.48C43.5646 11.3333 43.1646 11.76 42.3646 11.76C41.618 11.76 41.2446 11.4 41.2446 10.68C41.2446 10.6 41.258 10.52 41.2846 10.44C41.3113 10.3333 41.338 10.2 41.3646 10.04C41.3646 9.90667 41.2846 9.84 41.1246 9.84C40.858 9.84 40.4713 10.1333 39.9646 10.72C39.4846 11.28 39.2446 11.7067 39.2446 12C39.2446 12.1333 39.298 12.2933 39.4046 12.48C39.7246 13.2267 39.8846 14.04 39.8846 14.92C39.8846 16.8133 39.2446 18.4267 37.9646 19.76C36.7113 21.0667 35.0313 21.72 32.9246 21.72C31.378 21.72 29.9913 21.28 28.7646 20.4C26.7113 21.12 25.6846 21.92 25.6846 22.8C25.6846 23.36 26.0846 23.7067 26.8846 23.84C28.378 24.08 29.218 24.1733 29.4046 24.12H32.7246C34.2446 24.12 35.338 24.2 36.0046 24.36C37.978 24.84 38.9646 26.28 38.9646 28.68C38.9646 30.8133 38.2046 32.6533 36.6846 34.2C35.058 35.8533 32.8046 36.68 29.9246 36.68C27.8446 36.68 26.0046 36.2 24.4046 35.24C22.458 34.0667 21.4846 32.6933 21.4846 31.12C21.4846 30.0267 21.978 29.12 22.9646 28.4C23.418 28.08 24.418 27.6267 25.9646 27.04C24.418 26.4 23.6446 25.4667 23.6446 24.24C23.6446 22.2133 25.1913 20.76 28.2846 19.88C27.4313 18.76 27.0046 17.6267 27.0046 16.48C27.0046 14.4267 27.7513 12.6667 29.2446 11.2C30.7646 9.70667 32.5646 8.96 34.6446 8.96C36.2446 8.96 37.6046 9.68 38.7246 11.12C39.7113 9.6 40.7513 8.84 41.8446 8.84C42.9913 8.84 43.5646 9.38667 43.5646 10.48ZM37.0846 12.44C37.0846 10.5733 36.3113 9.64 34.7646 9.64C33.4846 9.64 32.338 10.76 31.3246 13C30.4446 14.92 30.0046 16.72 30.0046 18.4C30.0046 20.1333 30.858 21 32.5646 21C33.818 21 34.898 19.9733 35.8046 17.92C36.658 16 37.0846 14.1733 37.0846 12.44ZM37.8046 30.16C37.8046 29.4933 37.5913 28.8933 37.1646 28.36C36.738 27.8533 36.2046 27.5333 35.5646 27.4C34.6846 27.2133 33.2846 27.1333 31.3646 27.16L26.8446 27.24C25.1913 28.0667 24.3646 29.3467 24.3646 31.08C24.3646 32.5467 24.8846 33.72 25.9246 34.6C26.9913 35.5067 28.3913 35.96 30.1246 35.96C32.178 35.96 33.9646 35.3733 35.4846 34.2C37.0313 33.0533 37.8046 31.7067 37.8046 30.16ZM58.1493 11.68C58.1493 13.12 57.376 14.32 55.8293 15.28C54.2827 16.2133 52.3227 16.68 49.9493 16.68C49.096 16.68 48.1493 16.6133 47.1093 16.48C46.1227 18.5333 45.6293 20.44 45.6293 22.2C45.6293 24.5733 46.6827 25.76 48.7893 25.76C50.416 25.76 52.0027 24.9067 53.5493 23.2C53.896 22.8267 54.1227 22.64 54.2293 22.64C54.3627 22.64 54.4293 22.7067 54.4293 22.84C54.4293 23.4533 53.8027 24.2133 52.5493 25.12C51.1093 26.16 49.616 26.68 48.0693 26.68C46.336 26.68 44.9093 26.1733 43.7893 25.16C42.6693 24.1467 42.1093 22.8667 42.1093 21.32C42.1093 18.3333 43.736 15.44 46.9893 12.64C49.8427 10.1867 52.3893 8.96 54.6293 8.96C56.976 8.96 58.1493 9.86667 58.1493 11.68ZM55.3093 11C55.3093 10.1733 54.896 9.76 54.0693 9.76C53.216 9.76 52.376 10.08 51.5493 10.72C50.056 11.8933 48.6826 13.64 47.4293 15.96C47.7493 15.9867 48.1093 16 48.5093 16C50.0026 16 51.456 15.5467 52.8693 14.64C54.496 13.6267 55.3093 12.4133 55.3093 11ZM75.3046 12.12C75.3046 12.76 74.958 13.8667 74.2646 15.44L71.0246 22.76C70.6513 23.6133 70.4646 24.1867 70.4646 24.48C70.4646 25.04 70.7713 25.32 71.3846 25.32C72.1313 25.32 73.2246 24.7067 74.6646 23.48C74.798 23.4 74.9046 23.36 74.9846 23.36C75.1446 23.36 75.2246 23.4267 75.2246 23.56C75.2246 23.88 74.7846 24.3467 73.9046 24.96C72.7046 25.7867 71.4246 26.2 70.0646 26.2C69.238 26.2 68.558 26.0267 68.0246 25.68C67.4913 25.3067 67.2246 24.84 67.2246 24.28C67.2246 23.8267 67.478 23.0267 67.9846 21.88L71.1846 14.72C71.958 12.9867 72.3446 11.8133 72.3446 11.2C72.3446 10.2933 71.878 9.84 70.9446 9.84C69.718 9.84 68.278 10.72 66.6246 12.48C65.3713 13.8133 64.2246 15.68 63.1846 18.08L59.9046 25.68C59.7713 26.08 59.598 26.28 59.3846 26.28C59.3313 26.28 59.038 26.2533 58.5046 26.2C58.4246 26.1733 58.2646 26.16 58.0246 26.16C57.8113 26.16 57.4513 26.1867 56.9446 26.24C56.8646 26.2667 56.7713 26.28 56.6646 26.28C56.478 26.28 56.3846 26.2133 56.3846 26.08C56.3846 26.0267 56.4246 25.9467 56.5046 25.84L56.7846 25.24L62.9046 10.52C62.9846 10.3867 63.0513 10.2667 63.1046 10.16C63.078 9.97334 62.7446 9.86667 62.1046 9.84C61.3046 9.81334 60.9046 9.66667 60.9046 9.4C60.9046 9.21334 61.0513 9.12 61.3446 9.12C61.5313 9.12 61.8246 9.14667 62.2246 9.2C62.6246 9.25334 62.9313 9.28 63.1446 9.28C64.5846 9.28 65.5313 9.17334 65.9846 8.96C66.1713 8.88 66.2913 8.84 66.3446 8.84C66.5046 8.84 66.5846 8.92 66.5846 9.08C66.5846 9.16 66.5713 9.22667 66.5446 9.28L65.0646 13.04C65.278 12.8 65.5846 12.4667 65.9846 12.04C67.958 9.96 69.8646 8.92 71.7046 8.92C72.7713 8.92 73.638 9.22667 74.3046 9.84C74.9713 10.4267 75.3046 11.1867 75.3046 12.12Z" fill="#F3F3F3"></path> <path d="M46.1274 40.16L43.7524 31.4327H46.2013L47.5536 37.2964H47.6331L49.0422 31.4327H51.4456L52.8774 37.2623H52.9513L54.2809 31.4327H56.724L54.3547 40.16H51.7922L50.2922 34.6714H50.1843L48.6843 40.16H46.1274ZM60.5039 40.3248C59.947 40.3248 59.4508 40.2282 59.0152 40.035C58.5796 39.838 58.2349 39.5483 57.9811 39.1657C57.7311 38.7793 57.6061 38.2983 57.6061 37.7225C57.6061 37.2377 57.6951 36.8305 57.8732 36.5009C58.0512 36.1714 58.2936 35.9062 58.6005 35.7055C58.9073 35.5047 59.2558 35.3532 59.6459 35.2509C60.0398 35.1486 60.4527 35.0767 60.8845 35.035C61.3921 34.982 61.8012 34.9327 62.1118 34.8873C62.4224 34.838 62.6478 34.7661 62.788 34.6714C62.9281 34.5767 62.9982 34.4365 62.9982 34.2509V34.2168C62.9982 33.857 62.8845 33.5786 62.6573 33.3816C62.4338 33.1846 62.1156 33.0861 61.7027 33.0861C61.2671 33.0861 60.9205 33.1827 60.663 33.3759C60.4054 33.5653 60.2349 33.8039 60.1516 34.0918L57.913 33.91C58.0266 33.3797 58.2501 32.9214 58.5834 32.535C58.9167 32.1449 59.3467 31.8456 59.8732 31.6373C60.4035 31.4252 61.0171 31.3191 61.7141 31.3191C62.1989 31.3191 62.663 31.3759 63.1061 31.4895C63.5531 31.6032 63.9489 31.7793 64.2936 32.018C64.6421 32.2566 64.9167 32.5634 65.1175 32.9384C65.3183 33.3096 65.4186 33.7547 65.4186 34.2736V40.16H63.1232V38.9498H63.055C62.9148 39.2225 62.7273 39.463 62.4925 39.6714C62.2576 39.8759 61.9755 40.0369 61.6459 40.1543C61.3164 40.268 60.9357 40.3248 60.5039 40.3248ZM61.197 38.6543C61.5531 38.6543 61.8675 38.5842 62.1402 38.4441C62.413 38.3002 62.627 38.107 62.7823 37.8645C62.9376 37.6221 63.0152 37.3475 63.0152 37.0407V36.1145C62.9395 36.1638 62.8353 36.2092 62.7027 36.2509C62.5739 36.2888 62.4281 36.3248 62.2652 36.3589C62.1023 36.3892 61.9395 36.4176 61.7766 36.4441C61.6137 36.4668 61.466 36.4877 61.3334 36.5066C61.0493 36.5483 60.8012 36.6145 60.5891 36.7055C60.377 36.7964 60.2122 36.9195 60.0948 37.0748C59.9773 37.2263 59.9186 37.4157 59.9186 37.643C59.9186 37.9725 60.038 38.2244 60.2766 38.3986C60.519 38.5691 60.8258 38.6543 61.197 38.6543ZM69.7169 28.5236V40.16H67.2965V28.5236H69.7169ZM74.0763 28.5236V40.16H71.6559V28.5236H74.0763ZM79.9925 40.3305C79.0948 40.3305 78.322 40.1486 77.6743 39.785C77.0304 39.4176 76.5342 38.8986 76.1857 38.2282C75.8372 37.5539 75.663 36.7566 75.663 35.8361C75.663 34.9384 75.8372 34.1505 76.1857 33.4725C76.5342 32.7945 77.0247 32.2661 77.6573 31.8873C78.2936 31.5085 79.0398 31.3191 79.8959 31.3191C80.4717 31.3191 81.0076 31.4119 81.5039 31.5975C82.0039 31.7793 82.4395 32.0539 82.8107 32.4214C83.1857 32.7888 83.4773 33.2509 83.6857 33.8077C83.894 34.3608 83.9982 35.0085 83.9982 35.7509V36.4157H76.6289V34.9157H81.7198C81.7198 34.5672 81.644 34.2585 81.4925 33.9895C81.341 33.7206 81.1308 33.5104 80.8618 33.3589C80.5967 33.2036 80.288 33.1259 79.9357 33.1259C79.5683 33.1259 79.2425 33.2111 78.9584 33.3816C78.6781 33.5483 78.4584 33.7736 78.2993 34.0577C78.1402 34.338 78.0588 34.6505 78.055 34.9952V36.4214C78.055 36.8532 78.1345 37.2263 78.2936 37.5407C78.4565 37.8551 78.6857 38.0975 78.9811 38.268C79.2766 38.4384 79.627 38.5236 80.0323 38.5236C80.3012 38.5236 80.5474 38.4858 80.7709 38.41C80.9944 38.3342 81.1857 38.2206 81.3448 38.0691C81.5039 37.9176 81.6251 37.732 81.7084 37.5123L83.947 37.66C83.8334 38.1979 83.6005 38.6676 83.2482 39.0691C82.8997 39.4668 82.4489 39.7774 81.8959 40.0009C81.3467 40.2206 80.7122 40.3305 79.9925 40.3305ZM90.2198 31.4327V33.2509H84.9641V31.4327H90.2198ZM86.1573 29.3418H88.5777V37.4782C88.5777 37.7017 88.6118 37.8759 88.68 38.0009C88.7482 38.1221 88.8429 38.2074 88.9641 38.2566C89.0891 38.3058 89.233 38.3305 89.3959 38.3305C89.5095 38.3305 89.6232 38.321 89.7368 38.302C89.8505 38.2793 89.9376 38.2623 89.9982 38.2509L90.3789 40.052C90.2576 40.0899 90.0872 40.1335 89.8675 40.1827C89.6478 40.2358 89.3808 40.268 89.0664 40.2793C88.483 40.302 87.9717 40.2244 87.5323 40.0464C87.0967 39.8683 86.7576 39.5918 86.5152 39.2168C86.2728 38.8418 86.1535 38.3683 86.1573 37.7964V29.3418Z" fill="#F3F3F3"></path> </svg>
