<svg xmlns="http://www.w3.org/2000/svg" xmlns:xlink="http://www.w3.org/1999/xlink" width="512" height="512" viewBox="0 0 512 512"><defs><linearGradient id="a" x1="50%" x2="50%" y1="100%" y2="0%"><stop offset="0%" stop-color="#420c5d"/><stop offset="100%" stop-color="#951ad1"/></linearGradient><filter id="b" width="1.242" height="1.104" x="-.139" y="-.052" filterUnits="objectBoundingBox"><feOffset dx="-8" in="SourceAlpha" result="shadowOffsetOuter1"/><feGaussianBlur in="shadowOffsetOuter1" result="shadowBlurOuter1" stdDeviation="10"/><feColorMatrix in="shadowBlurOuter1" values="0 0 0 0 0.250980392 0 0 0 0 0.250980392 0 0 0 0 0.250980392 0 0 0 0.2 0"/></filter><path id="c" d="M25 29c127.578 0 231 102.975 231 230S152.578 489 25 489z"/></defs><g fill="none" fill-rule="evenodd"><circle cx="256" cy="256" r="246" fill="#f2e4ff" fill-rule="nonzero" style="fill:#fff;fill-opacity:1"/><path fill="url(#a)" d="M256 468.443V437.41c98.301-.284 177.896-80.042 177.896-178.414C433.896 160.632 354.3 80.874 256 80.59V49.557c115.44.29 208.922 93.936 208.922 209.44 0 115.51-93.483 209.162-208.922 209.446m0-108.62c55.445-.29 100.324-45.303 100.324-100.827 0-55.516-44.879-100.529-100.324-100.82V127.15c72.59.284 131.357 59.192 131.357 131.846 0 72.662-58.767 131.57-131.357 131.854zm0-155.1c29.742.283 53.777 24.461 53.777 54.273 0 29.82-24.035 53.998-53.777 54.282zM-.525 258.995c0 141.392 114.609 256.008 256 256.008 141.384 0 256-114.616 256-256.008 0-141.384-114.616-255.992-256-255.992-141.391 0-256 114.608-256 255.992" style="fill:#000"/><g style="fill:#000" transform="matrix(-1 0 0 1 281 0)"><use xlink:href="#c" filter="url(#b)" style="fill:#000"/><use xlink:href="#c" fill="url(#a)" style="fill:#000"/></g></g></svg>