<svg xmlns="http://www.w3.org/2000/svg" width="180" height="180" viewBox="0 0 180 180"><g fill="#f7a41d" fill-rule="evenodd" style="fill:none;stroke:#f7a41d;stroke-width:3.85964439;stroke-dasharray:none;stroke-opacity:1;stroke-linecap:round;stroke-linejoin:round;paint-order:normal"><path fill="#f7a41d" d="M90.185 16.366c40.584.103 73.449 33.025 73.449 73.632 0 40.609-32.865 73.533-73.45 73.633m0-119.986c25.52.1 46.18 20.81 46.18 46.353s-20.66 46.254-46.18 46.354m0-65.435c10.457.1 18.907 8.6 18.907 19.08 0 10.484-8.45 18.984-18.906 19.084zM0 89.997C0 139.706 40.292 180 90 180c49.705 0 90-40.295 90-90.002S139.705 0 90 0C40.292 0 0 40.292 0 89.998" style="fill:none;stroke:#f7a41d;stroke-width:10.48816292;stroke-linecap:round;stroke-linejoin:round;stroke-dasharray:none;stroke-opacity:1;paint-order:normal" transform="translate(12.612 12.771)scale(.85811)"/></g></svg>