<svg xmlns="http://www.w3.org/2000/svg" width="512" height="512" viewBox="0 0 512 512"><defs><linearGradient id="a" x1="50%" x2="50%" y1="100%" y2="0%"><stop offset="0%" stop-color="#420c5d"/><stop offset="100%" stop-color="#951ad1"/></linearGradient></defs><g fill="none" fill-rule="evenodd" style="stroke:#f7a41d;stroke-opacity:1;fill:none;fill-opacity:1"><path fill="url(#a)" d="M236.202 406.163c82.852-.24 157.99-66.844 157.99-149.756M244.254 341.39c46.731-.245 84.557-38.184 84.557-84.982 0-46.79-37.826-84.73-84.557-84.975m0 39.232c25.068.239 45.326 20.617 45.326 45.744 0 25.133-20.258 45.511-45.326 45.75m-216.21-45.751c0 119.17 96.598 215.773 215.768 215.773 119.164 0 215.767-96.603 215.767-215.773 0-119.164-96.603-215.76-215.767-215.76-119.17 0-215.767 96.596-215.767 215.76" style="fill:none;fill-opacity:1;stroke:#f7a41d;stroke-width:22.1898;stroke-dasharray:none;stroke-opacity:1" transform="translate(12.188 -.413)"/><path d="M236.202 106.652c82.852.24 157.99 66.844 157.99 149.755" style="fill:none;fill-opacity:1;stroke:#f7a41d;stroke-width:22.1898;stroke-dasharray:none;stroke-opacity:1" transform="translate(12.188 -.413)"/></g></svg>