<svg xmlns="http://www.w3.org/2000/svg" width="180" height="180" viewBox="0 0 180 180"><path fill="#000" fill-rule="evenodd" d="M90.185 163.631v-10.91c34.559-.1 62.541-28.14 62.541-62.723s-27.982-62.622-62.541-62.722v-10.91c40.584.103 73.449 33.025 73.449 73.632 0 40.609-32.865 73.533-73.45 73.633m0-38.186c19.492-.103 35.27-15.928 35.27-35.447 0-19.518-15.778-35.343-35.27-35.445V43.645c25.52.1 46.18 20.81 46.18 46.353 0 25.545-20.66 46.254-46.18 46.354zm0-54.528c10.456.1 18.906 8.6 18.906 19.08 0 10.484-8.45 18.984-18.906 19.084zM0 89.997C0 139.706 40.292 180 90 180c49.705 0 90-40.295 90-90.002S139.705 0 90 0C40.292 0 0 40.292 0 89.998" style="fill:#f7a41d;fill-opacity:1" transform="translate(9.13 9.296)scale(.89672)"/></svg>